<?xml version="1.0" standalone="no"?>
<!DOCTYPE svg PUBLIC "-//W3C//DTD SVG 20010904//EN"
 "http://www.w3.org/TR/2001/REC-SVG-20010904/DTD/svg10.dtd">
<svg version="1.0" xmlns="http://www.w3.org/2000/svg"
 width="320.000000pt" height="240.000000pt" viewBox="0 0 320.000000 240.000000"
 preserveAspectRatio="xMidYMid meet">
<metadata>
Created by potrace 1.16, written by Peter Selinger 2001-2019
</metadata>
<g transform="translate(0.000000,240.000000) scale(0.100000,-0.100000)"
fill="#000000" stroke="none">
<path d="M1565 2180 c3 -5 15 -10 25 -10 28 0 70 -41 76 -74 3 -16 7 -33 9
-37 3 -4 -5 -10 -18 -14 -12 -4 -29 -9 -37 -12 -8 -3 -38 -5 -67 -4 -51 1 -77
-11 -48 -23 8 -3 15 -10 15 -16 0 -16 -22 -12 -35 7 -17 23 -36 7 -64 -52 -11
-24 -25 -46 -31 -50 -5 -3 -10 -16 -10 -29 0 -23 -28 -56 -47 -56 -5 0 -16 11
-23 25 -7 14 -15 23 -17 21 -3 -2 3 -18 12 -36 15 -30 15 -33 -2 -57 -20 -29
-36 -53 -86 -136 -60 -98 -83 -265 -55 -406 10 -51 17 -65 35 -72 31 -11 29
-29 -2 -29 -46 0 -61 -89 -27 -158 11 -20 25 -66 32 -101 10 -47 18 -65 32
-69 21 -5 23 -15 7 -41 -10 -14 -7 -26 12 -60 22 -39 33 -46 86 -53 l21 -3
-24 -58 -23 -59 20 -39 c11 -22 27 -43 35 -46 12 -5 54 -72 54 -87 0 -3 -30
-22 -67 -42 -113 -63 -184 -132 -242 -237 -41 -73 -136 -67 1034 -67 l1055 0
0 643 c0 353 -4 636 -8 629 -5 -6 -40 -16 -78 -21 -40 -5 -92 -20 -122 -35
-29 -14 -75 -37 -102 -51 -28 -14 -59 -25 -70 -25 -11 0 -29 -9 -41 -21 -15
-15 -28 -19 -48 -14 -31 7 -67 -18 -55 -37 5 -8 -1 -9 -17 -5 -13 4 -29 7 -36
7 -9 0 -8 9 2 34 12 29 14 92 5 141 -1 6 -1 33 0 60 1 38 4 44 9 25 5 -17 9
-21 15 -12 4 6 4 18 -1 25 -4 6 -8 44 -9 82 -1 51 -7 80 -22 105 -11 19 -33
60 -48 90 -16 30 -35 63 -43 73 -11 13 -11 17 -1 17 10 0 10 3 0 15 -7 8 -22
15 -34 15 -29 0 -65 34 -61 57 2 10 6 34 9 53 5 35 5 35 -9 10 l-14 -25 -1 28
c0 32 -15 35 -30 7 -6 -11 -14 -20 -19 -20 -15 0 -30 50 -25 82 5 30 4 31 -9
16 -19 -24 -26 -23 -21 5 l5 22 -10 -22 c-6 -13 -14 -23 -19 -23 -12 0 -42 34
-42 48 0 7 -7 12 -15 12 -8 0 -24 8 -35 18 -11 9 -25 18 -30 18 -6 1 -16 2
-23 3 -7 0 -20 16 -28 34 -13 30 -19 33 -74 39 -33 4 -77 4 -97 1 -33 -5 -38
-3 -38 14 0 25 35 57 51 47 8 -4 10 -3 5 4 -18 29 -58 -1 -70 -50 -3 -16 -11
-28 -16 -28 -14 0 -42 60 -36 76 3 8 -1 14 -8 14 -11 0 -12 -8 -5 -37 4 -21 6
-39 5 -41 -2 -1 -20 -6 -40 -9 -33 -5 -36 -4 -30 13 4 11 15 27 26 37 10 10
18 20 18 23 0 7 -38 -15 -45 -26 -3 -6 -20 -8 -37 -5 -27 5 -29 4 -19 -9 7 -9
11 -21 9 -27 -2 -7 -15 2 -28 20 -12 19 -41 42 -64 52 -45 21 -70 24 -61 9z
m534 -114 c8 -9 8 -16 2 -20 -11 -7 -61 14 -61 26 0 14 47 9 59 -6z m-619 -89
c0 -7 -9 -18 -20 -25 -16 -10 -20 -10 -20 1 0 14 20 37 32 37 4 0 8 -6 8 -13z
m1121 -824 c-8 -15 -9 -12 -7 12 5 39 7 44 13 23 2 -10 0 -25 -6 -35z m264
-383 c17 -5 47 -11 68 -15 34 -5 41 -12 58 -53 12 -26 25 -73 30 -106 13 -80
66 -245 90 -278 l19 -27 -38 14 c-20 7 -54 20 -74 29 -21 9 -45 16 -55 16 -15
0 -15 -1 2 -14 10 -7 16 -20 12 -28 -6 -16 -65 -30 -72 -18 -6 9 -54 0 -61
-11 -3 -5 -9 -9 -13 -9 -11 0 -89 103 -93 122 -3 13 -13 22 -87 71 -34 23 -41
33 -41 60 0 40 8 51 27 35 20 -16 51 15 35 35 -15 18 -44 99 -38 105 3 2 16
-21 30 -52 14 -31 29 -56 35 -56 15 0 29 31 23 53 -4 16 -1 18 16 13 31 -10
33 6 7 60 -36 72 -34 75 33 68 31 -3 71 -10 87 -14z m-1435 -520 c0 -30 -75
-108 -90 -94 -16 16 0 44 47 83 21 17 39 31 40 31 2 0 3 -9 3 -20z"/>
<path d="M3168 1994 c-9 -9 -27 -18 -40 -19 -13 -1 -27 -3 -32 -4 -5 0 -3 -8
4 -16 10 -12 10 -18 0 -30 -7 -9 -14 -32 -16 -53 -2 -20 -6 -57 -9 -82 -4 -27
-1 -71 8 -110 12 -49 13 -68 4 -79 -25 -30 -19 -61 23 -103 22 -23 40 -45 40
-50 0 -4 11 -8 25 -8 l25 0 0 285 c0 157 -4 285 -8 285 -4 0 -15 -7 -24 -16z
m22 -416 c0 -10 -4 -18 -10 -18 -5 0 -10 9 -10 19 0 11 -4 23 -10 26 -5 3 -10
10 -10 15 0 6 9 2 20 -7 11 -10 20 -25 20 -35z"/>
<path d="M2590 1610 c0 -5 5 -10 11 -10 5 0 7 5 4 10 -3 6 -8 10 -11 10 -2 0
-4 -4 -4 -10z"/>
<path d="M158 1283 c7 -3 16 -2 19 1 4 3 -2 6 -13 5 -11 0 -14 -3 -6 -6z"/>
<path d="M910 15 c-23 -13 -23 -14 -4 -15 11 0 29 7 40 15 26 19 -1 20 -36 0z"/>
</g>
</svg>
